<svg id="Layer_1" data-name="Layer 1" xmlns="http://www.w3.org/2000/svg" viewBox="0 0 643.73 125.31"><defs><style>.cls-1{fill:#fff;}</style></defs><title>incomioincomio-wordmark-white</title><path class="cls-1" d="M92.51,27.72q-19.7,0-30.78,14.77V29.86h-20v90.74h20V70.42q0-10.48,6.63-17t17.53-6.49q10.38,0,16.55,6.32t6.18,16.81V120.6h20V63.49q0-16.18-9.93-26T92.51,27.72Z"/><path class="cls-1" d="M462,27.77q-21.28,0-31.85,17.43a29.34,29.34,0,0,0-11.72-12.81,35.27,35.27,0,0,0-18.34-4.63q-18.07,0-28.27,13.88V29.89h-20v90.74h20V68q0-9.44,6-15.21T393.47,47q9.3,0,14.76,5.61t5.46,15v53h20V68q0-9.42,6-15.21T455.38,47q9.3,0,14.76,5.61t5.46,15v53h20V61.75q0-15.3-9.3-24.55Q477.22,27.78,462,27.77Z"/><rect class="cls-1" x="10.74" y="-0.04" width="20.04" height="19.92"/><polygon class="cls-1" points="0 29.85 0 49.77 10.73 49.77 10.72 120.59 30.76 120.59 30.77 29.85 10.73 29.85 0 29.85"/><polygon class="cls-1" points="506.25 29.91 506.24 49.83 516.44 49.83 516.43 120.65 536.47 120.65 536.49 29.91 506.25 29.91"/><rect class="cls-1" x="516.45" y="0.02" width="20.04" height="19.92"/><path class="cls-1" d="M215.43,87.84a15.14,15.14,0,0,1-.84,1.83,27.07,27.07,0,0,1-4.5,6.85,4.61,4.61,0,0,1-.71.76,6.87,6.87,0,0,1-.68.75c-.44.44-.88.88-1.36,1.32s-.71.63-1.11,1a14,14,0,0,1-1.15.88c-.68.51-1.36.95-2,1.39a16.48,16.48,0,0,1-2.15,1.19,4.14,4.14,0,0,1-.43.24l-1.6.72a14.27,14.27,0,0,1-1.39.52,23.13,23.13,0,0,1-3.35,1,16.2,16.2,0,0,1-2,.4,10.3,10.3,0,0,1-2,.24,27.37,27.37,0,0,1-5.73.08,1.7,1.7,0,0,1-.44-.08,10.4,10.4,0,0,1-1.95-.24,19.29,19.29,0,0,1-2.19-.44c-.4-.08-.84-.2-1.23-.32a18.65,18.65,0,0,1-2-.64,12.77,12.77,0,0,1-1.39-.51l-1.59-.72-.44-.24a20.15,20.15,0,0,1-2.15-1.19c-.72-.44-1.39-.92-2-1.4a11.18,11.18,0,0,1-1.15-.87c-.4-.32-.76-.64-1.12-1A13.88,13.88,0,0,1,165.42,98a6.15,6.15,0,0,1-.68-.76,4.28,4.28,0,0,1-.72-.76,27.34,27.34,0,0,1-4.5-6.85,16,16,0,0,1-.83-1.83c-.28-.75-.56-1.51-.76-2.27a11.63,11.63,0,0,1-.48-1.71,19.45,19.45,0,0,1-.43-2.07l0,0c0-.36-.12-.72-.16-1a9.46,9.46,0,0,1-.12-1.07.51.51,0,0,1,0-.24.68.68,0,0,1,0-.28,25.72,25.72,0,0,1-.08-3.5,28,28,0,0,1,1.67-9.12,29.87,29.87,0,0,1,9.28-13.46c.08,0,.12-.12.2-.16a19.34,19.34,0,0,1,1.63-1.27c.6-.44,1.28-.84,1.92-1.24s1.19-.71,1.79-1l.48-.24a23.71,23.71,0,0,1,2.42-1.07,19,19,0,0,1,2.51-.84,30.42,30.42,0,0,1,11.27-1.15,29.2,29.2,0,0,1,6,1.15,18,18,0,0,1,2.51.84c.84.32,1.64.68,2.43,1.07l.48.24a20.66,20.66,0,0,1,1.79,1,15.58,15.58,0,0,1,1.91,1.23A15.28,15.28,0,0,1,206.43,53a.7.7,0,0,1,.2.16,29.45,29.45,0,0,1,8.56,11.62h19.16a42.82,42.82,0,0,0-2.47-7.37c-.28-.64-.56-1.27-.84-1.87a17.26,17.26,0,0,0-.95-1.87,17.18,17.18,0,0,0-1-1.71,22.82,22.82,0,0,0-1.23-2,36.38,36.38,0,0,0-2.23-3.14A39.17,39.17,0,0,0,223,43.64c-.56-.6-1.15-1.19-1.71-1.79s-1.2-1.15-1.83-1.71-1.24-1.08-1.87-1.6-1.32-1-2-1.51a39.73,39.73,0,0,0-4.18-2.71,24.27,24.27,0,0,0-2.19-1.19,43.19,43.19,0,0,0-6.57-2.79c-.71-.24-1.43-.48-2.19-.68s-1.39-.39-2.11-.55-1.71-.4-2.54-.56-1.44-.24-2.19-.32-1.56-.2-2.35-.28a50,50,0,0,0-8.48,0c-.8.08-1.6.16-2.35.28s-1.48.2-2.19.32-1.72.31-2.55.55-1.44.36-2.11.56-1.48.44-2.19.68a43.14,43.14,0,0,0-6.57,2.78,22.09,22.09,0,0,0-2.19,1.2A45.08,45.08,0,0,0,158.5,37c-.68.48-1.32,1-2,1.52s-1.27,1-1.87,1.59-1.23,1.11-1.83,1.71-1.15,1.2-1.71,1.79a40.61,40.61,0,0,0-2.63,3.15,34.32,34.32,0,0,0-2.23,3.14c-.44.68-.88,1.32-1.23,2a17.18,17.18,0,0,0-1,1.71c-.36.63-.64,1.23-1,1.87l-.83,1.87a44.15,44.15,0,0,0-2.75,8.52,47,47,0,0,0-1,5.93c0,.16,0,.32,0,.48,0,.72-.12,1.43-.16,2.15,0,1.39,0,2.79,0,4.18,0,.72.12,1.44.16,2.15a2,2,0,0,0,0,.48c.16,1.51.36,3,.64,4.5a1.17,1.17,0,0,0,.08.36l.59,2.59c.24.87.48,1.71.76,2.54.2.64.4,1.28.64,1.92s.52,1.39.79,2.07.52,1.19.8,1.79a48.15,48.15,0,0,0,7,11c.63.76,1.31,1.51,2,2.23.16.2.36.4.55.6a21.19,21.19,0,0,0,1.6,1.55,48.25,48.25,0,0,0,17.4,10.31,45.61,45.61,0,0,0,6.69,1.76,23.64,23.64,0,0,0,2.34.36c.76.12,1.56.2,2.35.27s1.44.12,2.15.16c1.4,0,2.79,0,4.19,0,.71,0,1.43-.11,2.15-.15s1.55-.16,2.34-.28a23.39,23.39,0,0,0,2.35-.36,46.89,46.89,0,0,0,6.69-1.75,48.69,48.69,0,0,0,17.4-10.31,19.55,19.55,0,0,0,1.6-1.56,6.15,6.15,0,0,0,.56-.59c.71-.72,1.39-1.48,2.07-2.23a28.35,28.35,0,0,0,1.79-2.27A45.19,45.19,0,0,0,231.28,97c.27-.6.55-1.2.79-1.79s.56-1.36.8-2.07.44-1.28.64-1.91c.27-.84.51-1.68.75-2.55s.4-1.71.6-2.59a1.17,1.17,0,0,1,.08-.36c0-.08,0-.12,0-.2H216.19C216,86.33,215.71,87.08,215.43,87.84Z"/><path class="cls-1" d="M339.72,71.84a45.27,45.27,0,0,0-1-5.93A44.25,44.25,0,0,0,336,57.38c-.28-.63-.55-1.27-.83-1.87a17.37,17.37,0,0,0-1-1.87c-.28-.56-.6-1.15-1-1.71a20.6,20.6,0,0,0-1.24-2,32.62,32.62,0,0,0-2.23-3.15,38.9,38.9,0,0,0-2.62-3.14c-.56-.6-1.16-1.2-1.72-1.8s-1.19-1.15-1.83-1.71-1.23-1.07-1.87-1.59-1.31-1-2-1.51a37.69,37.69,0,0,0-4.18-2.71,23.27,23.27,0,0,0-2.19-1.2,44.22,44.22,0,0,0-6.57-2.79c-.72-.23-1.43-.47-2.19-.67s-1.39-.4-2.11-.56-1.71-.4-2.55-.56-1.43-.24-2.19-.32-1.55-.2-2.35-.28A51.09,51.09,0,0,0,287,28c-.8.08-1.59.16-2.35.28s-1.47.2-2.19.32-1.71.32-2.55.56-1.43.36-2.11.55-1.47.44-2.19.68A43.19,43.19,0,0,0,269,33.13a24.49,24.49,0,0,0-2.19,1.19A48,48,0,0,0,262.64,37c-.68.48-1.31,1-2,1.51s-1.27,1-1.87,1.59-1.24,1.12-1.83,1.72-1.16,1.19-1.72,1.79a40.33,40.33,0,0,0-2.62,3.14,32.62,32.62,0,0,0-2.23,3.15c-.44.68-.88,1.31-1.24,2a16.22,16.22,0,0,0-.95,1.71c-.36.64-.64,1.24-1,1.87s-.56,1.24-.84,1.87a45.09,45.09,0,0,0-2.75,8.52,49.38,49.38,0,0,0-.95,5.94c0,.16,0,.32,0,.48,0,.71-.12,1.43-.16,2.15,0,1.39,0,2.78,0,4.18,0,.71.12,1.43.16,2.15a1.83,1.83,0,0,0,0,.47c.16,1.52.36,3,.63,4.5a1.17,1.17,0,0,0,.08.36c.2.88.4,1.75.6,2.59s.48,1.71.76,2.55c.2.64.39,1.27.63,1.91s.52,1.39.8,2.07.52,1.2.8,1.79a48.23,48.23,0,0,0,7,11c.64.76,1.32,1.52,2,2.23a7.68,7.68,0,0,0,.56.6,19.26,19.26,0,0,0,1.59,1.55,48.35,48.35,0,0,0,17.4,10.32,45.59,45.59,0,0,0,6.69,1.75c.8.16,1.55.28,2.35.36s1.55.2,2.35.28,1.43.12,2.15.16c1.39,0,2.79,0,4.18,0,.72,0,1.43-.12,2.15-.16s1.55-.16,2.35-.28,1.55-.2,2.35-.36a44.37,44.37,0,0,0,6.69-1.75,48.78,48.78,0,0,0,17.4-10.31,17.84,17.84,0,0,0,1.59-1.55,7.68,7.68,0,0,0,.56-.6c.72-.72,1.39-1.47,2.07-2.23a22.06,22.06,0,0,0,1.79-2.27A44.1,44.1,0,0,0,335.42,97c.28-.59.56-1.19.8-1.79s.56-1.35.79-2.07.44-1.27.64-1.91c.28-.84.52-1.67.76-2.55s.4-1.71.6-2.59a1.05,1.05,0,0,1,.08-.35c.27-1.48.47-3,.63-4.5,0-.16,0-.32,0-.48.08-.72.12-1.44.16-2.15,0-1.44,0-2.79,0-4.18,0-.72-.08-1.44-.16-2.15A2,2,0,0,0,339.72,71.84ZM321.65,79.2a.68.68,0,0,1,0,.28.51.51,0,0,1,0,.24,9.91,9.91,0,0,1-.12,1.08c0,.31-.08.67-.16,1l0,0a17.26,17.26,0,0,1-.44,2.07,11.63,11.63,0,0,1-.48,1.71c-.2.76-.48,1.52-.76,2.27a13.14,13.14,0,0,1-.83,1.83,27.34,27.34,0,0,1-4.5,6.85,4.28,4.28,0,0,1-.72.76,6.15,6.15,0,0,1-.68.76c-.43.43-.87.87-1.35,1.31s-.72.64-1.11,1-.76.59-1.16.87c-.68.52-1.35,1-2,1.39a18.58,18.58,0,0,1-2.15,1.2,4.36,4.36,0,0,1-.44.24l-1.59.71a14.47,14.47,0,0,1-1.4.52,23,23,0,0,1-3.34,1,14.86,14.86,0,0,1-2,.39,10.4,10.4,0,0,1-1.95.24,27.45,27.45,0,0,1-5.74.08,1.71,1.71,0,0,1-.43-.08,10.3,10.3,0,0,1-1.95-.24,21.21,21.21,0,0,1-2.19-.43c-.4-.08-.84-.2-1.24-.32a18.48,18.48,0,0,1-1.95-.64,13.36,13.36,0,0,1-1.39-.52l-1.6-.72-.43-.23a17.79,17.79,0,0,1-2.15-1.2c-.72-.44-1.4-.92-2-1.39a12.62,12.62,0,0,1-1.16-.88c-.4-.32-.76-.64-1.11-1A14.06,14.06,0,0,1,269.56,98a5.36,5.36,0,0,1-.67-.76,3.92,3.92,0,0,1-.72-.75,27.07,27.07,0,0,1-4.5-6.85,15.87,15.87,0,0,1-.84-1.83c-.27-.76-.55-1.52-.75-2.27a12.12,12.12,0,0,1-.48-1.72,16.85,16.85,0,0,1-.44-2.07l0,0c0-.35-.12-.71-.16-1a9.91,9.91,0,0,1-.12-1.08.51.51,0,0,1,0-.24.63.63,0,0,1,0-.27,27.57,27.57,0,0,1-.07-3.51,27.76,27.76,0,0,1,1.67-9.12,29.76,29.76,0,0,1,9.28-13.45c.08,0,.12-.12.2-.16a15.28,15.28,0,0,1,1.63-1.28c.6-.43,1.27-.83,1.91-1.23s1.2-.72,1.79-1l.48-.23a26.4,26.4,0,0,1,2.43-1.08,18.49,18.49,0,0,1,2.51-.84,30.4,30.4,0,0,1,11.27-1.15,29.21,29.21,0,0,1,6,1.16,18.44,18.44,0,0,1,2.51.83c.83.32,1.63.68,2.43,1.08l.48.24c.59.32,1.19.63,1.79,1A16.45,16.45,0,0,1,309,51.69,16.25,16.25,0,0,1,310.58,53a.7.7,0,0,1,.2.16,29.87,29.87,0,0,1,9.28,13.46,28,28,0,0,1,1.67,9.12A25.72,25.72,0,0,1,321.65,79.2Z"/><path class="cls-1" d="M643.54,72.35a2,2,0,0,0,0-.48,47,47,0,0,0-1-5.93,44.15,44.15,0,0,0-2.75-8.52c-.28-.64-.56-1.28-.84-1.87a15.05,15.05,0,0,0-1-1.88c-.28-.55-.6-1.15-1-1.71a18.71,18.71,0,0,0-1.23-2,35.9,35.9,0,0,0-2.23-3.15A39,39,0,0,0,631,43.68c-.55-.6-1.15-1.2-1.71-1.79s-1.19-1.16-1.83-1.72-1.23-1.07-1.87-1.59-1.32-1-2-1.51a40.21,40.21,0,0,0-4.18-2.71,22.19,22.19,0,0,0-2.19-1.19,42.21,42.21,0,0,0-6.57-2.79c-.72-.24-1.44-.48-2.19-.68s-1.4-.4-2.11-.56-1.71-.4-2.55-.56-1.43-.23-2.19-.31-1.55-.2-2.35-.28a50,50,0,0,0-8.48,0c-.8.08-1.59.16-2.35.27s-1.47.2-2.19.32-1.71.32-2.55.56-1.43.36-2.11.56-1.47.43-2.19.67a44.22,44.22,0,0,0-6.57,2.79c-.76.36-1.47.76-2.19,1.19a48.87,48.87,0,0,0-4.18,2.71c-.68.48-1.32,1-2,1.51s-1.28,1-1.87,1.6-1.24,1.11-1.84,1.71-1.15,1.19-1.71,1.79c-.91,1-1.79,2-2.63,3.15A36.38,36.38,0,0,0,554.15,50c-.43.68-.87,1.32-1.23,2s-.68,1.16-1,1.71-.63,1.24-1,1.88-.56,1.23-.84,1.87a44.63,44.63,0,0,0-2.75,8.52,47,47,0,0,0-.95,5.93c0,.16,0,.32,0,.48,0,.71-.12,1.43-.16,2.15,0,1.39,0,2.79,0,4.18,0,.72.12,1.43.16,2.15a2.58,2.58,0,0,0,0,.48c.16,1.51.36,3,.64,4.5a1.17,1.17,0,0,0,.08.36c.2.87.4,1.75.6,2.58s.48,1.72.75,2.55c.2.64.4,1.28.64,1.91s.52,1.4.8,2.07.51,1.2.79,1.8a48.15,48.15,0,0,0,7,11c.64.75,1.31,1.51,2,2.23a7.6,7.6,0,0,0,.56.59,19.44,19.44,0,0,0,1.59,1.56,48.33,48.33,0,0,0,17.4,10.31A44.37,44.37,0,0,0,586,124.5c.8.16,1.55.28,2.35.36s1.55.2,2.35.28,1.43.12,2.15.16c1.39,0,2.78,0,4.18,0,.72,0,1.43-.12,2.15-.16s1.55-.16,2.35-.28,1.55-.19,2.35-.35a46.89,46.89,0,0,0,6.69-1.75A48.8,48.8,0,0,0,628,112.44a17.81,17.81,0,0,0,1.59-1.55,7.68,7.68,0,0,0,.56-.6c.72-.71,1.39-1.47,2.07-2.23A24.67,24.67,0,0,0,634,105.8a44.69,44.69,0,0,0,5.18-8.72c.28-.6.56-1.2.8-1.8s.55-1.35.79-2.07.44-1.27.64-1.91c.28-.83.52-1.67.76-2.55s.39-1.71.59-2.58a1.17,1.17,0,0,1,.08-.36c.28-1.48.48-3,.64-4.5,0-.16,0-.32,0-.48.08-.72.12-1.43.16-2.15,0-1.43,0-2.79,0-4.18C643.66,73.78,643.62,73.07,643.54,72.35Zm-18.12,6.89a.63.63,0,0,1,0,.27.51.51,0,0,1,0,.24,9.91,9.91,0,0,1-.12,1.08,10.24,10.24,0,0,1-.15,1l0,0a16.85,16.85,0,0,1-.44,2.07,12.12,12.12,0,0,1-.48,1.72c-.2.75-.48,1.51-.76,2.27a17.69,17.69,0,0,1-.83,1.83,27.34,27.34,0,0,1-4.5,6.85,4.6,4.6,0,0,1-.72.75,6.15,6.15,0,0,1-.68.76c-.44.44-.87.87-1.35,1.31s-.72.64-1.12,1a10.84,10.84,0,0,1-1.15.87c-.68.52-1.36,1-2,1.4a19.39,19.39,0,0,1-2.15,1.19,4.36,4.36,0,0,1-.44.24l-1.59.72a12.21,12.21,0,0,1-1.4.51,23,23,0,0,1-3.34,1,16.94,16.94,0,0,1-2,.4,10.5,10.5,0,0,1-1.95.24,28.91,28.91,0,0,1-5.74.08,1.7,1.7,0,0,1-.44-.08,10.5,10.5,0,0,1-1.95-.24,19.74,19.74,0,0,1-2.19-.44c-.39-.08-.83-.2-1.23-.32a17.76,17.76,0,0,1-1.95-.64,14.47,14.47,0,0,1-1.4-.52l-1.59-.71-.44-.24a19.46,19.46,0,0,1-2.15-1.2c-.71-.43-1.39-.91-2-1.39a12.48,12.48,0,0,1-1.15-.88c-.4-.31-.76-.63-1.12-1a15.21,15.21,0,0,1-1.35-1.32,6.06,6.06,0,0,1-.68-.75,4.22,4.22,0,0,1-.71-.76,27.07,27.07,0,0,1-4.5-6.85,15.14,15.14,0,0,1-.84-1.83,22.31,22.31,0,0,1-.75-2.27,12.37,12.37,0,0,1-.48-1.71,17.68,17.68,0,0,1-.44-2.07l0,0c0-.36-.12-.72-.16-1a10,10,0,0,1-.12-1.07.51.51,0,0,1,0-.24.68.68,0,0,1,0-.28,25.86,25.86,0,0,1-.08-3.51,27.66,27.66,0,0,1,1.68-9.11,29.73,29.73,0,0,1,9.28-13.46c.08,0,.12-.12.19-.16a15,15,0,0,1,1.64-1.27c.6-.44,1.27-.84,1.91-1.24a20.51,20.51,0,0,1,1.79-1l.48-.24a26.4,26.4,0,0,1,2.43-1.08,18,18,0,0,1,2.51-.83,30.14,30.14,0,0,1,11.26-1.16,29.18,29.18,0,0,1,6,1.16,19,19,0,0,1,2.51.84,24.9,24.9,0,0,1,2.43,1.07l.47.24a19.27,19.27,0,0,1,1.79,1,14.59,14.59,0,0,1,1.92,1.23A19.34,19.34,0,0,1,614.36,53a.7.7,0,0,1,.2.16,29.82,29.82,0,0,1,9.27,13.46,27.76,27.76,0,0,1,1.67,9.12A25.86,25.86,0,0,1,625.42,79.24Z"/></svg>